# xmcd
#
# Track frame offsets: 
#        150
#        19693
#        37590
#        52539
#        72240
#        89621
#        108243
#        109613
#        127103
#        141921
#        160621
#        181577
#
# Disc length: 2677 seconds
#
# Revision: 0
# Processed by: cddbd v1.5.2PL0 Copyright (c) Steve Scherf et al.
# Submitted via: ExactAudioCopy v1.3
#
DISCID=8b0a730c
DTITLE=John Lowell - This Long Stretch of Gravel
DYEAR=2019
DGENRE=Bluegrass
TTITLE0=Fergus County Jail
TTITLE1=The Daydreamer's Waltz
TTITLE2=Without You Being Here with Me
TTITLE3=A World Far Beyond
TTITLE4=New Phase of the Moon
TTITLE5=Velvet Western Sky - Black Eyed Susie
TTITLE6=Ben Bullington Radio ID
TTITLE7=Walking My Blues Away
TTITLE8=The Last To Know
TTITLE9=Jerusalem's Choir
TTITLE10=Bodie
TTITLE11=Good Things Are Coming My Way
EXTD=
EXTT0=
EXTT1=
EXTT2=
EXTT3=
EXTT4=
EXTT5=
EXTT6=
EXTT7=
EXTT8=
EXTT9=
EXTT10=
EXTT11=
PLAYORDER=
